<?xml version="1.0" standalone="no"?>
<!DOCTYPE svg PUBLIC "-//W3C//DTD SVG 20010904//EN"
 "http://www.w3.org/TR/2001/REC-SVG-20010904/DTD/svg10.dtd">
<svg version="1.0" xmlns="http://www.w3.org/2000/svg"
 width="502.000000pt" height="502.000000pt" viewBox="0 0 502.000000 502.000000"
 preserveAspectRatio="xMidYMid meet">
<metadata>
Created by potrace 1.14, written by Peter Selinger 2001-2017
</metadata>
<g transform="translate(0.000000,502.000000) scale(0.100000,-0.100000)"
fill="#000000" stroke="none">
<path d="M2457 4694 c-1 -1 -40 -5 -87 -8 -79 -6 -102 -8 -170 -21 -14 -3 -41
-7 -60 -10 -56 -9 -149 -34 -235 -63 -44 -14 -82 -27 -85 -27 -39 -10 -256
-117 -330 -163 -160 -99 -245 -167 -390 -312 -257 -257 -443 -599 -518 -950
-37 -175 -44 -261 -46 -564 -2 -273 3 -303 41 -280 16 10 18 33 19 280 1 148
5 292 9 319 4 28 8 68 10 90 6 84 47 247 97 385 54 150 183 388 268 494 173
216 388 406 570 504 156 85 323 159 400 178 8 2 40 10 70 19 30 8 70 18 89 20
18 3 36 7 40 10 4 2 30 7 57 11 27 3 52 8 55 10 8 5 206 17 274 17 60 1 226
-11 275 -19 81 -12 177 -32 224 -46 23 -6 43 -12 46 -13 45 -8 233 -83 325
-130 450 -227 800 -616 955 -1063 33 -95 57 -124 79 -98 15 18 8 46 -40 167
-178 452 -523 830 -957 1048 -120 60 -293 127 -383 147 -11 2 -27 6 -36 8 -78
19 -124 28 -158 32 -22 3 -46 7 -53 10 -25 8 -348 24 -355 18z"/>
<path d="M2320 4499 c-19 -4 -57 -10 -84 -13 -27 -4 -51 -8 -55 -10 -3 -2 -22
-7 -41 -10 -19 -3 -71 -16 -115 -30 -191 -57 -370 -144 -530 -258 -341 -242
-583 -590 -686 -986 -16 -63 -32 -137 -35 -165 -3 -29 -7 -58 -10 -66 -2 -7
-7 -59 -10 -115 -5 -83 -3 -104 9 -114 28 -24 47 -4 48 52 2 74 5 115 12 166
4 25 10 63 12 84 6 43 28 134 51 211 19 60 21 68 23 77 4 16 54 126 87 192 32
63 138 234 153 246 3 3 19 23 36 45 36 50 195 209 254 255 24 19 48 40 55 46
23 21 223 141 287 172 242 117 474 167 764 167 211 -1 376 -29 585 -101 8 -3
16 -5 18 -4 1 0 15 -5 30 -13 15 -8 68 -33 117 -57 266 -126 519 -347 682
-596 51 -80 153 -273 153 -291 0 -22 42 -93 55 -93 33 0 34 34 1 115 -136 335
-362 606 -678 816 -49 32 -88 56 -88 53 0 -3 -12 3 -27 14 -41 28 -206 100
-303 132 -86 28 -243 65 -322 76 -66 9 -409 11 -448 3z"/>
<path d="M2188 4279 c-10 -5 -18 -8 -18 -5 0 12 -213 -69 -325 -124 -119 -58
-298 -171 -365 -231 -19 -17 -43 -37 -52 -43 -25 -18 -47 -66 -40 -86 12 -31
114 -133 168 -167 102 -67 193 -93 304 -89 277 11 477 226 465 499 -3 77 -11
120 -24 146 -5 9 -9 18 -9 21 1 3 -9 24 -21 48 -22 44 -46 53 -83 31z"/>
<path d="M2818 4275 c-98 -25 -156 -91 -167 -192 -3 -29 -9 -53 -14 -53 -13 1
-71 -32 -95 -54 -34 -30 -60 -85 -68 -144 -5 -44 -4 -51 14 -61 26 -14 41 3
47 55 11 79 64 134 134 137 49 3 63 19 49 58 -30 86 34 180 132 197 36 6 46
12 48 29 5 32 -24 43 -80 28z"/>
<path d="M2900 4021 c-40 -11 -31 -40 19 -64 57 -28 69 -48 52 -80 -19 -35 0
-67 40 -67 43 0 55 -37 23 -67 -25 -23 -23 -52 2 -54 34 -3 62 -18 60 -32 -1
-7 -7 -22 -14 -34 -18 -33 -15 -51 15 -79 32 -29 42 -79 30 -154 -10 -65 -11
-67 -32 -46 -9 9 -14 16 -11 16 10 0 -113 140 -153 174 -13 12 -37 33 -55 48
-87 76 -204 112 -272 83 -72 -30 -156 -147 -127 -176 14 -14 52 -19 59 -7 8
13 72 41 105 45 36 5 45 -21 19 -54 -21 -27 -26 -58 -11 -67 12 -8 71 14 71
25 0 5 12 14 27 20 39 15 77 -4 70 -34 -3 -12 -8 -33 -11 -46 -8 -35 9 -52 42
-40 14 5 38 7 53 4 22 -5 27 -12 27 -34 -1 -34 10 -54 25 -48 16 6 58 -16 78
-39 25 -29 29 -52 13 -68 -13 -13 -20 -13 -62 0 -73 23 -191 54 -199 53 -5 -1
-10 0 -13 1 -12 4 -48 10 -80 13 -19 1 -40 5 -45 9 -6 4 -17 3 -23 -1 -7 -4
-32 -5 -56 -1 -24 4 -52 5 -62 4 -11 -2 -53 -6 -94 -9 -41 -3 -82 -8 -90 -10
-8 -3 -33 -7 -54 -11 -81 -12 -162 -44 -193 -74 -62 -61 -82 -170 -30 -170 30
0 41 9 62 50 24 48 45 70 67 70 23 0 22 -3 -2 -73 -26 -73 -30 -99 -18 -114
17 -21 45 3 92 76 66 103 133 158 159 132 7 -7 4 -26 -11 -62 -25 -59 -28 -85
-9 -91 23 -9 39 4 82 72 44 69 75 89 96 64 9 -11 9 -20 0 -38 -16 -29 -11 -70
9 -73 8 -1 37 24 63 57 41 51 51 58 70 51 17 -6 22 -17 23 -47 3 -69 4 -74 17
-74 7 0 20 8 28 18 38 43 82 73 96 68 9 -4 13 -9 9 -13 -8 -9 34 -53 51 -53
23 0 14 -35 -14 -55 -55 -38 -279 -274 -339 -356 -170 -233 -206 -314 -167
-380 20 -34 38 -37 53 -9 6 11 8 20 5 20 -10 0 34 103 62 144 51 75 201 270
243 316 139 153 211 215 260 228 45 11 86 -9 75 -37 -22 -54 -16 -58 52 -48
43 7 56 -10 42 -52 -6 -17 -14 -31 -18 -31 -4 0 -13 -11 -19 -24 -11 -25 4
-60 27 -62 6 -1 17 -2 24 -3 29 -2 43 -90 17 -99 -6 -2 -10 -8 -10 -12 0 -5
-11 -26 -25 -46 -14 -20 -25 -50 -25 -67 0 -26 3 -29 23 -22 64 20 67 19 67
-13 0 -31 -38 -143 -52 -152 -12 -9 -18 -82 -7 -102 6 -11 17 -16 32 -14 12 3
25 5 29 5 17 2 88 105 107 156 30 79 34 108 34 220 0 120 -7 168 -41 260 -13
39 -27 89 -29 111 -4 38 -3 42 20 46 44 9 78 -41 72 -106 -5 -58 50 -96 57
-39 3 29 16 37 37 24 8 -5 15 -34 18 -77 2 -38 6 -75 8 -81 7 -21 35 -2 50 33
10 24 18 32 29 28 9 -3 17 -14 17 -23 1 -9 2 -43 4 -76 3 -86 3 -85 30 -85 14
0 24 3 23 8 -2 13 21 62 31 62 19 0 33 -32 36 -82 3 -80 3 -80 27 -76 51 7 66
114 29 207 -30 73 -51 104 -135 187 -91 90 -170 143 -276 184 -92 36 -116 52
-105 70 5 8 10 8 21 -1 8 -6 14 -8 14 -3 0 4 5 3 12 -4 16 -16 43 -15 58 3 18
22 43 18 76 -10 38 -32 64 -33 64 -1 0 48 59 39 95 -14 26 -38 58 -53 80 -36
15 11 16 16 5 35 -10 19 -9 26 2 37 17 17 26 11 78 -61 24 -33 44 -61 45 -63
1 -1 12 -4 23 -7 27 -5 44 16 38 46 -15 77 -21 96 -43 135 -14 24 -39 54 -56
66 -30 21 -42 23 -162 22 -71 -1 -175 -4 -230 -7 -176 -10 -190 6 -199 238 -5
139 -7 170 -20 265 -32 243 -153 374 -306 331z"/>
<path d="M3285 3942 c-53 -10 -49 -62 5 -62 39 0 93 -40 106 -78 16 -49 27
-56 67 -43 49 16 100 5 137 -31 27 -25 30 -34 24 -61 -4 -18 -6 -46 -6 -64 1
-29 -2 -33 -37 -43 -87 -23 -160 -116 -161 -202 0 -42 7 -49 38 -41 15 4 22
13 22 31 0 41 37 105 74 130 19 13 54 26 78 29 24 3 46 11 50 17 4 5 5 34 3
64 -5 69 18 118 74 155 45 30 48 38 25 61 -13 14 -19 14 -42 2 -15 -8 -37 -24
-50 -36 l-22 -21 -28 26 c-38 36 -86 55 -141 55 -41 0 -49 4 -64 30 -30 49
-107 91 -152 82z"/>
<path d="M1152 3538 c-28 -28 1 -60 48 -52 30 6 82 -25 105 -60 10 -14 20 -58
24 -98 l6 -73 55 -6 c30 -3 65 -12 78 -20 25 -16 67 -93 57 -108 -3 -6 3 -15
14 -21 16 -8 29 -5 61 11 72 38 134 8 162 -76 9 -29 19 -41 36 -43 22 -3 27 7
22 53 -4 37 -5 40 -27 72 -28 39 -28 39 2 79 35 46 89 61 150 44 51 -14 61 -9
69 31 12 72 64 130 136 156 33 11 50 23 50 34 0 38 -42 43 -104 14 -39 -19
-96 -69 -96 -84 0 -6 -4 -11 -8 -11 -5 0 -14 -17 -21 -37 -12 -38 -13 -38 -62
-35 -35 3 -61 -2 -94 -18 -41 -20 -88 -64 -97 -91 -3 -10 -20 -12 -70 -8 -7 1
-25 -2 -40 -6 -23 -6 -29 -3 -42 24 -30 57 -90 98 -151 103 -21 2 -25 7 -25
34 0 73 -47 152 -110 184 -44 22 -110 26 -128 8z"/>
<path d="M3915 3446 c-80 -35 -135 -173 -75 -189 23 -6 40 10 40 38 0 39 25
75 62 93 42 19 54 38 37 58 -14 17 -25 17 -64 0z"/>
<path d="M1206 3169 c-52 -12 -86 -34 -116 -73 -24 -32 -27 -33 -93 -32 -56 1
-72 -2 -81 -16 -16 -26 3 -39 60 -42 27 -2 67 -7 90 -11 39 -7 40 -6 58 32 25
54 59 76 127 81 58 4 74 16 63 47 -4 8 -14 15 -24 15 -10 0 -24 2 -32 4 -7 2
-30 0 -52 -5z"/>
<path d="M4262 3157 c-27 -12 -24 -31 5 -35 15 -2 19 -9 16 -21 -3 -13 2 -20
17 -24 12 -3 20 -10 17 -15 -4 -4 3 -16 14 -25 11 -10 17 -22 14 -27 -3 -5 -1
-19 5 -30 6 -11 9 -20 8 -20 -2 0 -21 7 -43 15 -41 15 -171 18 -215 6 -30 -8
-50 -55 -31 -74 10 -9 14 -8 22 6 9 15 13 16 26 5 12 -10 17 -9 28 6 9 11 18
15 27 10 7 -5 22 -7 33 -6 11 2 1 -7 -23 -19 -70 -36 -108 -107 -65 -123 18
-7 35 12 26 27 -4 6 4 7 19 4 20 -5 27 -3 31 13 3 14 10 18 21 14 9 -4 24 0
34 8 18 16 52 30 52 23 0 -3 -30 -44 -66 -92 -36 -49 -81 -117 -99 -153 -38
-75 -81 -207 -91 -277 -12 -89 -10 -103 20 -103 25 0 28 5 41 90 19 118 68
244 133 340 78 117 113 142 97 70 -5 -24 -3 -30 10 -30 13 0 14 -4 4 -21 -8
-16 -8 -23 1 -29 6 -4 9 -17 5 -32 -9 -33 8 -43 30 -18 18 20 24 88 13 146 -6
33 5 64 19 50 4 -4 9 -12 9 -17 1 -5 2 -13 3 -19 0 -5 8 -10 16 -10 10 0 15
-7 13 -17 -2 -10 3 -17 9 -16 7 2 15 -8 19 -22 3 -14 13 -25 21 -25 31 0 3 98
-48 172 l-19 26 35 -1 c19 -1 35 -3 35 -6 0 -4 18 -7 40 -8 35 -1 40 2 40 21
0 41 -35 61 -106 61 l-63 0 -7 40 c-8 50 -34 103 -68 137 -32 31 -54 38 -84
25z"/>
<path d="M1330 2920 c-176 -12 -270 -106 -441 -440 -29 -58 -103 -193 -165
-300 -61 -107 -127 -224 -146 -260 -20 -36 -49 -90 -65 -120 -225 -413 -226
-449 -19 -463 81 -5 112 -29 122 -92 3 -22 7 -254 8 -515 1 -437 2 -478 19
-503 9 -15 26 -27 37 -27 21 0 48 34 55 71 13 64 6 234 -15 362 -11 69 -5 149
14 186 33 63 38 64 344 62 279 -2 316 -5 341 -25 19 -15 46 -83 51 -126 6 -61
4 -232 -4 -321 -18 -190 -8 -240 44 -224 31 10 38 38 33 145 -6 161 -10 503
-5 527 2 13 10 23 17 23 7 0 33 9 59 20 38 18 119 38 246 64 14 3 68 19 120
36 175 57 237 50 227 -27 -7 -47 20 -81 51 -64 26 14 25 7 28 191 1 80 3 162
3 182 2 59 38 93 120 113 105 25 102 22 102 158 1 117 1 118 25 128 14 5 45 9
69 9 30 0 45 5 49 16 8 20 11 15 -124 184 -138 173 -299 398 -435 610 -85 131
-134 200 -207 290 -22 27 -111 97 -148 116 -29 16 -59 19 -180 19 -80 1 -183
-2 -230 -5z m419 -147 c21 -21 73 -81 115 -133 43 -52 87 -106 98 -118 11 -13
18 -26 16 -28 -6 -5 -141 -19 -303 -29 -33 -2 -60 -5 -60 -5 0 -1 -35 -4 -77
-6 l-78 -5 79 159 c106 212 138 237 210 165z m312 -400 c16 -16 22 -36 24 -82
2 -34 6 -78 9 -99 14 -94 18 -155 18 -251 0 -87 -3 -107 -19 -130 -22 -28 -70
-55 -120 -64 -37 -7 -40 1 -43 108 -3 176 -24 250 -83 301 -22 18 -50 35 -61
36 -79 6 -119 -14 -143 -70 -12 -28 -16 -86 -18 -246 -2 -122 -8 -213 -14
-219 -13 -13 -45 -17 -163 -23 -88 -5 -98 -4 -117 15 -14 14 -21 35 -22 64 -8
412 -11 392 61 545 38 80 47 92 69 93 15 0 33 2 41 4 14 2 41 4 262 21 48 3
111 9 140 13 95 13 156 7 179 -16z m211 -288 c132 -203 138 -212 138 -223 0
-9 -218 -77 -225 -70 -4 4 -15 146 -30 373 -4 64 -3 96 3 90 5 -5 56 -82 114
-170z m-1027 -142 c-2 -27 -6 -95 -10 -153 -4 -58 -8 -120 -9 -137 0 -18 -3
-34 -6 -34 -3 -1 -39 -2 -81 -3 -89 -3 -88 -17 -13 134 29 58 66 135 83 173
17 37 33 67 35 67 2 0 2 -21 1 -47z m1168 -315 c-3 -124 -5 -142 -21 -144 -4
0 -33 -6 -65 -13 -31 -7 -71 -14 -87 -16 -26 -4 -117 -19 -165 -29 -46 -9
-177 -47 -275 -80 -168 -56 -251 -76 -256 -62 -6 17 3 236 10 244 4 3 16 7 28
9 12 2 47 10 77 18 31 8 67 16 81 18 43 8 312 77 321 83 5 3 17 7 27 9 31 6
105 26 167 46 33 11 69 21 80 23 11 3 31 9 45 15 14 5 27 10 30 10 4 1 5 -58
3 -131z m-965 -112 c3 -4 3 -154 -1 -223 0 -7 -12 -13 -26 -14 -14 0 -55 -2
-91 -4 -36 -2 -159 -7 -275 -10 -402 -12 -371 -14 -375 20 -4 39 -1 41 80 39
87 -1 149 18 172 55 18 29 26 27 61 -14 32 -38 48 -43 67 -20 14 17 4 37 -44
89 -25 26 -26 31 -16 57 11 26 16 28 79 31 90 4 363 -1 369 -6z m737 -220 c18
-27 20 -47 12 -90 -14 -69 -82 -103 -267 -132 -19 -3 -82 -21 -140 -40 -144
-46 -191 -50 -224 -19 -38 35 -32 69 23 128 41 45 117 75 319 127 221 57 255
60 277 26z m-784 -119 c14 -5 33 -22 43 -38 16 -28 17 -56 7 -160 -1 -4 -148
-6 -328 -5 -306 1 -331 3 -368 21 -34 17 -40 25 -43 56 -4 43 24 82 76 106 30
14 74 17 244 18 114 1 210 4 213 6 7 8 127 4 156 -4z"/>
<path d="M2253 1653 c-22 -8 -14 -31 23 -73 40 -45 69 -51 80 -18 5 17 -2 30
-34 60 -41 38 -47 41 -69 31z"/>
<path d="M2148 1629 c-27 -15 -22 -32 22 -88 44 -56 47 -57 75 -37 18 13 18
15 3 37 -9 13 -31 41 -49 61 -28 31 -37 36 -51 27z"/>
<path d="M2028 1586 c-24 -18 -23 -29 8 -65 32 -38 57 -53 78 -45 27 10 18 38
-26 81 -38 36 -45 40 -60 29z"/>
<path d="M1881 1557 c-13 -13 -15 -47 -2 -47 5 0 28 -18 50 -40 35 -35 44 -39
61 -30 24 13 25 18 2 52 -33 50 -91 85 -111 65z"/>
<path d="M1778 1532 c-27 -5 -30 -33 -6 -68 29 -43 68 -65 91 -53 9 6 17 15
17 22 -1 21 -84 103 -102 99z"/>
<path d="M1643 1503 c-25 -10 -12 -44 32 -87 31 -31 51 -43 64 -39 39 10 33
35 -21 85 -29 26 -55 48 -58 47 -3 0 -11 -3 -17 -6z"/>
<path d="M1250 1465 c-13 -16 -1 -51 35 -93 29 -34 55 -41 74 -18 10 11 6 21
-17 48 -16 18 -34 42 -39 52 -13 24 -38 29 -53 11z"/>
<path d="M1103 1453 c-7 -2 -13 -11 -13 -19 0 -22 72 -104 91 -104 42 0 25 68
-27 109 -28 22 -31 23 -51 14z"/>
<path d="M4265 2491 c-10 -17 12 -21 25 -6 10 12 10 15 -3 15 -9 0 -18 -4 -22
-9z"/>
<path d="M4350 2435 c0 -8 7 -15 15 -15 8 0 15 7 15 15 0 8 -7 15 -15 15 -8 0
-15 -7 -15 -15z"/>
<path d="M4424 2436 c-8 -22 -2 -27 16 -16 12 7 12 12 3 21 -10 10 -14 9 -19
-5z"/>
<path d="M4485 2411 c-7 -12 12 -24 25 -16 11 7 4 25 -10 25 -5 0 -11 -4 -15
-9z"/>
<path d="M3947 2393 c-12 -11 -8 -23 8 -23 8 0 15 7 15 15 0 16 -12 20 -23 8z"/>
<path d="M4211 2376 c-9 -10 -9 -16 -1 -21 16 -10 31 7 21 23 -6 10 -10 10
-20 -2z"/>
<path d="M2765 2360 c-8 -26 6 -43 31 -38 13 2 19 12 19 28 0 34 -40 41 -50
10z"/>
<path d="M4390 2365 c-16 -20 8 -31 27 -13 13 14 13 16 0 21 -9 3 -21 0 -27
-8z"/>
<path d="M2996 2337 c-10 -7 -17 -22 -14 -33 4 -24 41 -30 58 -9 11 14 10 19
-6 36 -17 16 -22 17 -38 6z"/>
<path d="M4285 2340 c-10 -17 12 -37 25 -24 8 8 6 15 -4 23 -10 9 -16 9 -21 1z"/>
<path d="M4192 2316 c1 -10 8 -17 13 -17 15 1 12 24 -3 29 -9 3 -13 -2 -10
-12z"/>
<path d="M3882 2308 c-28 -28 -3 -66 33 -52 25 10 12 64 -15 64 -3 0 -11 -5
-18 -12z"/>
<path d="M3635 2291 c-3 -5 -1 -12 5 -16 12 -7 30 2 30 16 0 12 -27 12 -35 0z"/>
<path d="M3460 2265 c-10 -12 -10 -15 4 -15 9 0 16 7 16 15 0 8 -2 15 -4 15
-2 0 -9 -7 -16 -15z"/>
<path d="M2580 2235 c-28 -33 16 -84 46 -53 16 16 16 18 0 42 -19 30 -29 32
-46 11z"/>
<path d="M2756 2224 c-4 -9 1 -14 14 -14 23 0 27 15 6 23 -8 3 -17 -1 -20 -9z"/>
<path d="M3813 2208 c-19 -26 -2 -59 27 -51 24 6 27 48 4 57 -21 8 -20 8 -31
-6z"/>
<path d="M3527 2183 c-12 -11 -8 -23 8 -23 8 0 15 7 15 15 0 16 -12 20 -23 8z"/>
<path d="M2815 2170 c-4 -6 -3 -16 3 -22 6 -6 12 -6 17 2 4 6 3 16 -3 22 -6 6
-12 6 -17 -2z"/>
<path d="M3015 2159 c-7 -21 7 -39 32 -39 14 0 27 36 18 50 -11 18 -43 11 -50
-11z"/>
<path d="M2880 2146 c0 -9 7 -16 16 -16 17 0 14 22 -4 28 -7 2 -12 -3 -12 -12z"/>
<path d="M3690 2145 c-8 -10 -8 -19 0 -34 12 -23 12 -23 34 -15 23 9 20 51 -4
57 -10 3 -24 -1 -30 -8z"/>
<path d="M3475 2100 c-4 -7 -1 -16 6 -21 17 -10 26 8 11 23 -6 6 -12 6 -17 -2z"/>
<path d="M4500 2099 c-58 -9 -376 -116 -555 -186 -157 -62 -515 -232 -515
-245 0 -4 -6 -8 -13 -8 -16 0 -136 -70 -290 -169 -65 -42 -126 -80 -135 -86
-9 -5 -19 -12 -22 -15 -3 -3 -39 -30 -80 -60 -65 -46 -97 -71 -205 -157 -35
-28 -138 -116 -185 -158 -96 -86 -420 -418 -420 -431 0 -4 -53 -63 -104 -117
-101 -107 -144 -196 -109 -223 38 -30 74 -3 152 110 55 81 123 162 245 294 77
82 226 232 231 232 2 0 23 19 47 43 24 23 75 69 113 102 39 33 72 62 75 65 3
3 23 18 45 35 22 16 42 32 45 36 7 8 269 199 275 199 2 0 32 19 67 43 71 47
167 107 173 107 3 0 29 16 59 35 30 19 60 36 67 37 8 2 16 6 19 10 5 7 285
144 341 167 19 8 57 24 84 36 28 12 66 28 85 34 19 7 44 17 55 22 59 26 184
66 189 61 3 -3 6 -1 6 5 0 5 6 10 13 11 6 1 46 10 87 21 204 54 217 58 253 89
20 17 23 51 5 54 -7 0 -17 2 -23 2 -5 1 -14 4 -20 7 -5 3 -30 2 -55 -2z"/>
<path d="M2910 2085 c-24 -29 15 -70 45 -45 14 12 10 39 -9 52 -16 11 -22 10
-36 -7z"/>
<path d="M2740 2065 c-16 -20 8 -31 27 -13 13 14 13 16 0 21 -9 3 -21 0 -27
-8z"/>
<path d="M3477 2033 c-13 -12 -7 -23 13 -23 11 0 20 7 20 15 0 15 -21 21 -33
8z"/>
<path d="M3004 2009 c-3 -6 -1 -16 5 -22 9 -9 14 -8 21 3 9 15 4 30 -10 30 -5
0 -12 -5 -16 -11z"/>
<path d="M3405 2000 c-4 -6 -3 -16 3 -22 6 -6 12 -6 17 2 4 6 3 16 -3 22 -6 6
-12 6 -17 -2z"/>
<path d="M3182 1988 c-14 -14 2 -48 22 -48 20 0 37 25 30 44 -7 19 -35 21 -52
4z"/>
<path d="M2840 1976 c0 -18 17 -29 30 -21 8 5 7 11 -1 21 -15 18 -29 18 -29 0z"/>
<path d="M3132 1939 c2 -6 8 -10 13 -10 5 0 11 4 13 10 2 6 -4 11 -13 11 -9 0
-15 -5 -13 -11z"/>
<path d="M2640 1925 c-16 -19 -6 -45 18 -45 28 0 43 20 31 42 -12 22 -32 23
-49 3z"/>
<path d="M3020 1924 c0 -9 5 -14 12 -12 18 6 21 28 4 28 -9 0 -16 -7 -16 -16z"/>
<path d="M2955 1880 c-4 -6 -3 -16 3 -22 6 -6 12 -6 17 2 4 6 3 16 -3 22 -6 6
-12 6 -17 -2z"/>
<path d="M2806 1805 c-4 -12 -1 -16 11 -13 18 3 21 20 5 26 -5 1 -12 -4 -16
-13z"/>
<path d="M4565 1772 c-11 -2 -40 -12 -65 -23 -25 -10 -88 -34 -140 -54 -393
-150 -687 -295 -1009 -500 -120 -76 -362 -245 -389 -272 -7 -7 -41 -34 -75
-60 -34 -27 -69 -55 -78 -63 -8 -8 -36 -32 -61 -53 -47 -38 -144 -128 -267
-247 -38 -36 -94 -90 -125 -119 -59 -57 -78 -82 -83 -115 -4 -26 28 -55 51
-46 10 3 100 87 200 186 100 99 213 207 251 240 39 32 75 64 80 70 6 5 33 28
60 49 28 22 52 42 55 45 8 8 134 103 160 120 13 8 31 22 40 30 18 16 33 27 98
68 24 15 56 37 70 49 15 13 30 23 34 23 4 0 34 18 67 40 33 22 65 40 71 40 5
0 10 5 10 10 0 6 5 10 10 10 6 0 27 11 48 24 73 48 436 234 466 239 6 1 13 5
16 8 5 6 197 86 260 108 19 7 44 17 55 22 11 4 47 15 80 24 33 9 67 19 75 22
8 4 17 7 20 7 24 6 70 33 79 48 24 38 -14 80 -64 70z"/>
<path d="M2710 1636 c0 -9 7 -16 16 -16 17 0 14 22 -4 28 -7 2 -12 -3 -12 -12z"/>
<path d="M4522 1308 c-6 -6 -12 -9 -12 -5 0 6 -37 -6 -115 -38 -11 -4 -28 -10
-38 -12 -39 -7 -328 -129 -438 -184 -291 -145 -601 -351 -803 -534 -6 -6 -36
-30 -66 -55 -71 -58 -165 -150 -154 -150 5 0 1 -5 -8 -11 -20 -11 -40 -73 -31
-96 4 -11 14 -13 37 -9 17 4 33 11 34 16 2 6 8 10 14 10 5 0 56 46 112 103
110 109 143 140 221 202 28 22 52 42 55 45 40 40 312 223 440 295 85 49 314
165 324 165 3 0 29 11 58 24 93 41 237 95 275 102 12 2 34 9 48 14 14 5 25 8
25 5 0 -2 20 4 44 15 24 10 46 16 49 14 2 -3 12 7 22 22 26 40 9 69 -42 72
-21 2 -44 -3 -51 -10z"/>
<path d="M4534 981 c-5 -4 -36 -18 -69 -30 -33 -13 -84 -34 -113 -47 -29 -13
-57 -24 -62 -24 -6 0 -10 -4 -10 -10 0 -5 -3 -9 -7 -8 -10 3 -180 -80 -258
-126 -33 -20 -67 -39 -75 -43 -8 -4 -45 -26 -83 -50 -37 -24 -69 -43 -72 -43
-7 0 -227 -149 -245 -166 -8 -8 -26 -24 -40 -35 -14 -11 -49 -43 -78 -71 -45
-43 -53 -56 -50 -82 6 -65 80 -36 201 77 31 30 57 52 57 49 0 -3 10 4 23 15
39 36 168 124 287 197 103 63 441 242 448 237 1 -1 23 7 48 19 26 11 53 20 60
20 17 0 87 39 96 54 10 15 10 38 0 54 -10 15 -46 23 -58 13z"/>
<path d="M4364 560 c-235 -119 -404 -228 -404 -261 0 -6 -4 -7 -10 -4 -5 3
-10 0 -10 -7 0 -7 -3 -22 -6 -34 -8 -30 22 -57 54 -49 14 3 51 29 81 57 31 28
74 63 96 77 22 14 42 28 45 31 12 12 73 44 180 96 189 90 202 98 211 121 11
29 -12 53 -50 53 -16 0 -100 -36 -187 -80z"/>
</g>
</svg>
