<?xml version="1.0" standalone="no"?>
<!DOCTYPE svg PUBLIC "-//W3C//DTD SVG 20010904//EN"
 "http://www.w3.org/TR/2001/REC-SVG-20010904/DTD/svg10.dtd">
<svg version="1.0" xmlns="http://www.w3.org/2000/svg"
 width="136.000000pt" height="136.000000pt" viewBox="0 0 136.000000 136.000000"
 preserveAspectRatio="xMidYMid meet">
<metadata>
Created by potrace 1.14, written by Peter Selinger 2001-2017
</metadata>
<g transform="translate(0.000000,136.000000) scale(0.100000,-0.100000)"
fill="#000000" stroke="none">
<path d="M334 1048 c-15 -24 84 -79 173 -94 15 -3 36 -7 46 -10 21 -7 219 -6
267 1 165 22 260 44 260 59 0 23 -9 23 -98 5 -263 -55 -507 -41 -601 32 -28
22 -37 23 -47 7z"/>
<path d="M230 974 c0 -42 118 -102 255 -130 50 -10 304 -13 390 -4 219 23 215
22 215 46 0 14 -7 16 -45 11 -374 -52 -684 -23 -769 72 -23 25 -46 27 -46 5z"/>
<path d="M200 795 c-13 -16 -6 -22 99 -75 l84 -43 -24 -19 c-77 -61 -119 -101
-119 -114 0 -22 22 -16 60 17 48 42 116 89 130 89 7 0 59 -16 116 -35 194 -67
335 -78 444 -35 45 18 55 19 61 7 5 -8 17 -25 28 -38 15 -19 22 -21 32 -12 10
10 7 20 -13 49 l-27 37 26 38 c14 21 22 43 18 48 -9 16 -35 13 -35 -2 0 -8 -8
-22 -19 -31 -18 -16 -20 -15 -56 20 -51 49 -150 94 -222 100 -78 7 -188 -17
-284 -62 l-77 -36 -106 55 c-82 43 -108 52 -116 42z m695 -68 c28 -14 66 -40
85 -57 34 -30 34 -31 15 -46 -74 -55 -297 -36 -483 42 l-36 15 29 16 c17 8 62
26 100 40 96 32 216 28 290 -10z"/>
<path d="M826 681 c-19 -30 35 -64 61 -38 13 12 12 16 -2 31 -18 17 -50 21
-59 7z"/>
<path d="M677 524 c-1 -1 -47 -4 -102 -8 -151 -9 -346 -61 -330 -87 8 -12 23
-10 140 20 140 37 361 46 490 21 98 -18 101 -19 164 -39 39 -12 63 -15 67 -9
15 24 -48 50 -188 78 -49 10 -235 29 -241 24z"/>
<path d="M658 395 c-2 -1 -43 -5 -93 -9 -182 -12 -325 -40 -325 -62 0 -21 6
-21 112 0 40 8 96 18 123 22 28 3 59 8 70 10 37 7 260 6 320 -1 33 -4 87 -16
120 -26 71 -22 95 -24 95 -6 0 15 -69 41 -153 57 -50 10 -261 22 -269 15z"/>
</g>
</svg>
